<?xml version="1.0" encoding="UTF-8" standalone="no"?>
<!DOCTYPE svg PUBLIC "-//W3C//DTD SVG 1.1//EN" "http://www.w3.org/Graphics/SVG/1.1/DTD/svg11.dtd">
<svg width="100%" height="100%" viewBox="0 0 20 20" version="1.1" xmlns="http://www.w3.org/2000/svg" xmlns:xlink="http://www.w3.org/1999/xlink" xml:space="preserve" xmlns:serif="http://www.serif.com/" style="fill-rule:evenodd;clip-rule:evenodd;stroke-linejoin:round;stroke-miterlimit:2;">
    <g transform="matrix(2,0,0,2,0,0)">
        <path d="M5,0C7.76,0 10,2.24 10,5C10,7.76 7.76,10 5,10C2.24,10 0,7.76 0,5C0,2.24 2.24,0 5,0ZM5,0.6C2.572,0.6 0.6,2.572 0.6,5C0.6,7.428 2.572,9.4 5,9.4C7.428,9.4 9.4,7.428 9.4,5C9.4,2.572 7.428,0.6 5,0.6Z"/>
    </g>
    <g transform="matrix(1.6,0,0,1.6,2,2)">
        <path d="M5,-0.625C8.105,-0.625 10.625,1.895 10.625,5C10.625,8.105 8.105,10.625 5,10.625C1.895,10.625 -0.625,8.105 -0.625,5C-0.625,1.895 1.895,-0.625 5,-0.625ZM5,0C2.24,0 0,2.24 0,5C0,7.76 2.24,10 5,10C7.76,10 10,7.76 10,5C10,2.24 7.76,0 5,0Z" style="fill:white;"/>
    </g>
</svg>
