<?xml version="1.0" encoding="UTF-8" standalone="no"?><!DOCTYPE svg PUBLIC "-//W3C//DTD SVG 1.1//EN" "http://www.w3.org/Graphics/SVG/1.1/DTD/svg11.dtd"><svg width="100%" height="100%" viewBox="0 0 500 500" version="1.1" xmlns="http://www.w3.org/2000/svg" xmlns:xlink="http://www.w3.org/1999/xlink" xml:space="preserve" xmlns:serif="http://www.serif.com/" style="fill-rule:evenodd;clip-rule:evenodd;stroke-linejoin:round;stroke-miterlimit:1.41421;"><g id="back"><path d="M436.165,114.578c17.227,4.615 23.117,38.575 13.146,75.787c-9.971,37.212 -32.052,63.676 -49.278,59.06c-17.227,-4.616 -23.117,-38.575 -13.146,-75.787c9.97,-37.212 32.051,-63.676 49.278,-59.06Z" style="fill:#4e4e4e;"/><path d="M478.935,225.803c12.611,12.611 0.733,44.966 -26.509,72.207c-27.241,27.241 -59.596,39.119 -72.206,26.509c-12.611,-12.611 -0.733,-44.966 26.508,-72.207c27.241,-27.241 59.596,-39.119 72.207,-26.509Z" style="fill:#4e4e4e;"/><path d="M460.362,343.513c4.616,17.226 -21.848,39.307 -59.061,49.278c-37.212,9.971 -71.171,4.08 -75.787,-13.146c-4.616,-17.227 21.849,-39.308 59.061,-49.279c37.212,-9.971 71.171,-4.08 75.787,13.147Z" style="fill:#4e4e4e;"/><path d="M385.422,436.165c-4.615,17.227 -38.575,23.117 -75.787,13.146c-37.212,-9.971 -63.676,-32.052 -59.06,-49.278c4.616,-17.227 38.575,-23.117 75.787,-13.146c37.212,9.97 63.676,32.051 59.06,49.278Z" style="fill:#4e4e4e;"/><path d="M274.197,478.935c-12.611,12.611 -44.966,0.733 -72.207,-26.509c-27.241,-27.241 -39.119,-59.596 -26.509,-72.206c12.611,-12.611 44.966,-0.733 72.207,26.508c27.241,27.241 39.119,59.596 26.509,72.207Z" style="fill:#4e4e4e;"/><path d="M156.487,460.362c-17.226,4.616 -39.307,-21.848 -49.278,-59.061c-9.971,-37.212 -4.08,-71.171 13.146,-75.787c17.227,-4.616 39.308,21.849 49.279,59.061c9.971,37.212 4.08,71.171 -13.147,75.787Z" style="fill:#4e4e4e;"/><path d="M63.835,385.422c-17.227,-4.615 -23.117,-38.575 -13.146,-75.787c9.971,-37.212 32.052,-63.676 49.278,-59.06c17.227,4.616 23.117,38.575 13.146,75.787c-9.97,37.212 -32.051,63.676 -49.278,59.06Z" style="fill:#4e4e4e;"/><path d="M21.065,274.197c-12.611,-12.611 -0.733,-44.966 26.509,-72.207c27.241,-27.241 59.596,-39.119 72.206,-26.509c12.611,12.611 0.733,44.966 -26.508,72.207c-27.241,27.241 -59.596,39.119 -72.207,26.509Z" style="fill:#4e4e4e;"/><path d="M39.638,156.487c-4.616,-17.226 21.848,-39.307 59.061,-49.278c37.212,-9.971 71.171,-4.08 75.787,13.146c4.616,17.227 -21.849,39.308 -59.061,49.279c-37.212,9.971 -71.171,4.08 -75.787,-13.147Z" style="fill:#4e4e4e;"/><path d="M114.578,63.835c4.615,-17.227 38.575,-23.117 75.787,-13.146c37.212,9.971 63.676,32.052 59.06,49.278c-4.616,17.227 -38.575,23.117 -75.787,13.146c-37.212,-9.97 -63.676,-32.051 -59.06,-49.278Z" style="fill:#4e4e4e;"/><path d="M225.803,21.065c12.611,-12.611 44.966,-0.733 72.207,26.509c27.241,27.241 39.119,59.596 26.509,72.206c-12.611,12.611 -44.966,0.733 -72.207,-26.508c-27.241,-27.241 -39.119,-59.596 -26.509,-72.207Z" style="fill:#4e4e4e;"/><path d="M343.513,39.638c17.226,-4.616 39.307,21.848 49.278,59.061c9.971,37.212 4.08,71.171 -13.146,75.787c-17.227,4.616 -39.308,-21.849 -49.279,-59.061c-9.971,-37.212 -4.08,-71.171 13.147,-75.787Z" style="fill:#4e4e4e;"/></g><g id="front"><path d="M359.708,44.154c12.611,12.611 0.732,44.966 -26.509,72.207c-27.241,27.241 -59.596,39.119 -72.206,26.508c-12.611,-12.61 -0.733,-44.965 26.508,-72.206c27.241,-27.242 59.596,-39.12 72.207,-26.509Z" style="fill:#9bc2e3;"/><path d="M447.933,126.586c4.616,17.227 -21.849,39.308 -59.061,49.279c-37.212,9.971 -71.171,4.08 -75.787,-13.147c-4.616,-17.226 21.848,-39.307 59.061,-49.278c37.212,-9.971 71.171,-4.08 75.787,13.146Z" style="fill:#9b9ee3;"/><path d="M483.122,242.087c-4.616,17.226 -38.575,23.117 -75.787,13.146c-37.213,-9.971 -63.677,-32.052 -59.061,-49.278c4.616,-17.227 38.575,-23.118 75.787,-13.147c37.212,9.971 63.676,32.052 59.061,49.279Z" style="fill:#bc9be3;"/><path d="M455.846,359.708c-12.611,12.611 -44.966,0.732 -72.207,-26.509c-27.241,-27.241 -39.119,-59.596 -26.508,-72.206c12.61,-12.611 44.965,-0.733 72.206,26.508c27.242,27.241 39.12,59.596 26.509,72.207Z" style="fill:#e09be3;"/><path d="M373.414,447.933c-17.227,4.616 -39.308,-21.849 -49.279,-59.061c-9.971,-37.212 -4.08,-71.171 13.147,-75.787c17.226,-4.616 39.307,21.848 49.278,59.061c9.971,37.212 4.08,71.171 -13.146,75.787Z" style="fill:#e39bc2;"/><path d="M257.913,483.122c-17.226,-4.616 -23.117,-38.575 -13.146,-75.787c9.971,-37.213 32.052,-63.677 49.278,-59.061c17.227,4.616 23.118,38.575 13.147,75.787c-9.971,37.212 -32.052,63.676 -49.279,59.061Z" style="fill:#e39b9e;"/><path d="M140.292,455.846c-12.611,-12.611 -0.732,-44.966 26.509,-72.207c27.241,-27.241 59.596,-39.119 72.206,-26.508c12.611,12.61 0.733,44.965 -26.508,72.206c-27.241,27.242 -59.596,39.12 -72.207,26.509Z" style="fill:#e3bc9b;"/><path d="M52.067,373.414c-4.616,-17.227 21.849,-39.308 59.061,-49.279c37.212,-9.971 71.171,-4.08 75.787,13.147c4.616,17.226 -21.848,39.307 -59.061,49.278c-37.212,9.971 -71.171,4.08 -75.787,-13.146Z" style="fill:#e3e09b;"/><path d="M16.878,257.913c4.616,-17.226 38.575,-23.117 75.787,-13.146c37.213,9.971 63.677,32.052 59.061,49.278c-4.616,17.227 -38.575,23.118 -75.787,13.147c-37.212,-9.971 -63.676,-32.052 -59.061,-49.279Z" style="fill:#c2e39b;"/><path d="M44.154,140.292c12.611,-12.611 44.966,-0.732 72.207,26.509c27.241,27.241 39.119,59.596 26.508,72.206c-12.61,12.611 -44.965,0.733 -72.206,-26.508c-27.242,-27.241 -39.12,-59.596 -26.509,-72.207Z" style="fill:#9ee39b;"/><path d="M126.586,52.067c17.227,-4.616 39.308,21.849 49.279,59.061c9.971,37.212 4.08,71.171 -13.147,75.787c-17.226,4.616 -39.307,-21.848 -49.278,-59.061c-9.971,-37.212 -4.08,-71.171 13.146,-75.787Z" style="fill:#9be3bc;"/><path d="M242.087,16.878c17.226,4.616 23.117,38.575 13.146,75.787c-9.971,37.213 -32.052,63.677 -49.278,59.061c-17.227,-4.616 -23.118,-38.575 -13.147,-75.787c9.971,-37.212 32.052,-63.676 49.279,-59.061Z" style="fill:#9be3e0;"/></g></svg>